<svg width="16" height="16" viewBox="0 0 16 16" fill="none" xmlns="http://www.w3.org/2000/svg">
<path d="M11.7466 7.16673C11.46 7.16673 11.2333 6.9334 11.2333 6.6534C11.2333 6.40673 10.9866 5.8934 10.5733 5.44673C10.1666 5.0134 9.71998 4.76007 9.34665 4.76007C9.05998 4.76007 8.83331 4.52673 8.83331 4.24673C8.83331 3.96673 9.06665 3.7334 9.34665 3.7334C10.0133 3.7334 10.7133 4.0934 11.3266 4.74007C11.9 5.34673 12.2666 6.10007 12.2666 6.64673C12.2666 6.9334 12.0333 7.16673 11.7466 7.16673Z" fill="#FFE922"/>
<path d="M14.1534 7.16658C13.8667 7.16658 13.64 6.93325 13.64 6.65325C13.64 4.28658 11.7134 2.36659 9.35336 2.36659C9.06669 2.36659 8.84003 2.13325 8.84003 1.85325C8.84003 1.57325 9.06669 1.33325 9.34669 1.33325C12.28 1.33325 14.6667 3.71992 14.6667 6.65325C14.6667 6.93325 14.4334 7.16658 14.1534 7.16658Z" fill="#FFE922"/>
<path d="M7.36665 9.96659L6.13331 11.1999C5.87331 11.4599 5.45998 11.4599 5.19331 11.2066C5.11998 11.1333 5.04665 11.0666 4.97331 10.9933C4.28665 10.2999 3.66665 9.57325 3.11331 8.81325C2.56665 8.05325 2.12665 7.29325 1.80665 6.53992C1.49331 5.77992 1.33331 5.05325 1.33331 4.35992C1.33331 3.90659 1.41331 3.47325 1.57331 3.07325C1.73331 2.66659 1.98665 2.29325 2.33998 1.95992C2.76665 1.53992 3.23331 1.33325 3.72665 1.33325C3.91331 1.33325 4.09998 1.37325 4.26665 1.45325C4.43998 1.53325 4.59331 1.65325 4.71331 1.82659L6.25998 4.00659C6.37998 4.17325 6.46665 4.32659 6.52665 4.47325C6.58665 4.61325 6.61998 4.75325 6.61998 4.87992C6.61998 5.03992 6.57331 5.19992 6.47998 5.35325C6.39331 5.50659 6.26665 5.66659 6.10665 5.82659L5.59998 6.35325C5.52665 6.42659 5.49331 6.51325 5.49331 6.61992C5.49331 6.67325 5.49998 6.71992 5.51331 6.77325C5.53331 6.82659 5.55331 6.86659 5.56665 6.90659C5.68665 7.12659 5.89331 7.41325 6.18665 7.75992C6.48665 8.10659 6.80665 8.45992 7.15331 8.81325C7.21998 8.87992 7.29331 8.94659 7.35998 9.01325C7.62665 9.27325 7.63331 9.69992 7.36665 9.96659Z" fill="#FFE922"/>
<path d="M14.6467 12.2201C14.6467 12.4068 14.6134 12.6001 14.5467 12.7868C14.5267 12.8401 14.5067 12.8934 14.48 12.9468C14.3667 13.1868 14.22 13.4134 14.0267 13.6268C13.7 13.9868 13.34 14.2468 12.9334 14.4134C12.9267 14.4134 12.92 14.4201 12.9134 14.4201C12.52 14.5801 12.0934 14.6668 11.6334 14.6668C10.9534 14.6668 10.2267 14.5068 9.46002 14.1801C8.69336 13.8534 7.92669 13.4134 7.16669 12.8601C6.90669 12.6668 6.64669 12.4734 6.40002 12.2668L8.58002 10.0868C8.76669 10.2268 8.93336 10.3334 9.07336 10.4068C9.10669 10.4201 9.14669 10.4401 9.19336 10.4601C9.24669 10.4801 9.30002 10.4868 9.36002 10.4868C9.47336 10.4868 9.56002 10.4468 9.63336 10.3734L10.14 9.87344C10.3067 9.70677 10.4667 9.58011 10.62 9.50011C10.7734 9.40677 10.9267 9.36011 11.0934 9.36011C11.22 9.36011 11.3534 9.38677 11.5 9.44677C11.6467 9.50677 11.8 9.59344 11.9667 9.70677L14.1734 11.2734C14.3467 11.3934 14.4667 11.5334 14.54 11.7001C14.6067 11.8668 14.6467 12.0334 14.6467 12.2201Z" fill="#FFE922"/>
</svg>
