<svg width="37" height="37" viewBox="0 0 37 37" fill="none" xmlns="http://www.w3.org/2000/svg">
<path fill-rule="evenodd" clip-rule="evenodd" d="M18.4988 0.490845C8.28335 0.490845 0 8.80587 0 19.0653C0 27.2701 5.30024 34.2316 12.6528 36.688C13.5778 36.8586 13.9155 36.2851 13.9155 35.7929C13.9155 35.3518 13.8993 34.184 13.89 32.6343C8.74354 33.7568 7.65785 30.1444 7.65785 30.1444C6.81726 27.9991 5.60435 27.428 5.60435 27.428C3.92432 26.2753 5.73152 26.2985 5.73152 26.2985C7.5873 26.4296 8.56432 28.2127 8.56432 28.2127C10.2154 31.0509 12.8945 30.2314 13.949 29.7555C14.1167 28.5552 14.5953 27.7368 15.1237 27.2725C11.0156 26.8035 6.69699 25.2108 6.69699 18.0937C6.69699 16.0658 7.41735 14.4081 8.60135 13.1091C8.41057 12.639 7.77579 10.7515 8.78173 8.19414C8.78173 8.19414 10.3357 7.69497 13.8692 10.0979C15.3457 9.68579 16.9275 9.48033 18.5012 9.4722C20.0725 9.48033 21.6554 9.68579 23.1331 10.0979C26.6643 7.69497 28.2148 8.19414 28.2148 8.19414C29.2242 10.7515 28.5894 12.639 28.3986 13.1091C29.585 14.4081 30.3007 16.0658 30.3007 18.0937C30.3007 25.2282 25.9752 26.7988 21.8543 27.2585C22.518 27.8319 23.11 28.9649 23.11 30.6981C23.11 33.1811 23.0868 35.1835 23.0868 35.7929C23.0868 36.2898 23.4199 36.8679 24.3587 36.6856C31.7044 34.2247 37 27.2678 37 19.0653C37 8.80587 28.7166 0.490845 18.4988 0.490845Z" fill="#FFE922"/>
</svg>
