<svg width="33" height="46" viewBox="0 0 33 46" fill="none" xmlns="http://www.w3.org/2000/svg">
<path d="M16.5 21.4805C14.9845 21.4805 13.531 20.8878 12.4594 19.8329C11.3878 18.7781 10.7857 17.3473 10.7857 15.8555C10.7857 14.3636 11.3878 12.9329 12.4594 11.878C13.531 10.8231 14.9845 10.2305 16.5 10.2305C18.0155 10.2305 19.469 10.8231 20.5406 11.878C21.6122 12.9329 22.2143 14.3636 22.2143 15.8555C22.2143 16.5942 22.0665 17.3256 21.7793 18.0081C21.4921 18.6905 21.0712 19.3106 20.5406 19.8329C20.01 20.3553 19.3801 20.7696 18.6868 21.0523C17.9935 21.335 17.2504 21.4805 16.5 21.4805ZM16.5 0.105469C12.2565 0.105469 8.18687 1.76484 5.18629 4.71854C2.18571 7.67223 0.5 11.6783 0.5 15.8555C0.5 27.668 16.5 45.1055 16.5 45.1055C16.5 45.1055 32.5 27.668 32.5 15.8555C32.5 11.6783 30.8143 7.67223 27.8137 4.71854C24.8131 1.76484 20.7435 0.105469 16.5 0.105469Z" fill="#FFE922"/>
</svg>
