<svg xmlns="http://www.w3.org/2000/svg" xmlns:xlink="http://www.w3.org/1999/xlink" width="500" zoomAndPan="magnify" viewBox="0 0 375 374.999991" height="500" preserveAspectRatio="xMidYMid meet" version="1.0"><path fill="#ffe922" d="M 36.183594 123.355469 C 42.761719 125 42.761719 125 36.183594 123.355469 Z M 138.15625 332.238281 C 138.15625 327.300781 138.15625 324.011719 138.15625 319.078125 C 136.511719 264.800781 144.738281 223.683594 162.828125 197.367188 C 151.316406 246.710938 157.894531 294.40625 182.566406 337.171875 C 184.210938 338.816406 184.210938 340.460938 185.855469 343.75 L 194.078125 342.105469 L 236.84375 330.59375 C 235.199219 320.722656 230.261719 307.566406 218.75 289.472656 C 194.078125 245.066406 192.433594 213.816406 213.816406 192.433594 C 213.816406 190.789062 215.460938 187.5 215.460938 185.855469 C 217.105469 187.5 217.105469 187.5 218.75 189.144531 C 218.75 189.144531 218.75 190.789062 218.75 190.789062 C 236.84375 210.527344 251.644531 217.105469 266.449219 210.527344 C 300.988281 195.722656 304.277344 199.011719 271.382812 220.394531 C 299.34375 235.199219 314.144531 246.710938 314.144531 251.644531 C 317.433594 259.867188 322.367188 264.800781 328.949219 268.09375 C 333.882812 269.738281 338.816406 271.382812 345.394531 269.738281 C 327.300781 241.777344 328.949219 240.132812 351.972656 268.09375 C 371.710938 259.867188 378.289062 245.066406 375 225.328125 L 317.433594 115.132812 C 315.789062 110.199219 314.144531 106.90625 312.5 103.617188 C 309.210938 93.75 305.921875 83.882812 304.277344 75.65625 C 302.632812 69.078125 300.988281 62.5 300.988281 57.566406 C 300.988281 55.921875 300.988281 54.277344 300.988281 52.632812 C 297.699219 59.210938 292.761719 64.144531 287.828125 64.144531 C 287.828125 57.566406 286.183594 50.988281 286.183594 46.050781 C 284.539062 39.472656 282.894531 34.539062 279.605469 32.894531 C 276.316406 41.117188 273.027344 47.699219 271.382812 52.632812 C 269.738281 55.921875 266.449219 57.566406 264.800781 59.210938 C 263.15625 57.566406 261.511719 57.566406 259.867188 55.921875 C 241.777344 44.40625 225.328125 39.472656 208.882812 41.117188 C 215.460938 44.40625 217.105469 49.34375 218.75 55.921875 C 139.800781 50.988281 98.683594 44.40625 92.105469 41.117188 C 100.328125 54.277344 108.550781 65.789062 118.421875 72.367188 C 65.789062 77.300781 27.960938 93.75 1.644531 118.421875 C 19.738281 121.710938 31.25 125 37.828125 126.644531 C 23.027344 148.027344 14.800781 174.34375 16.449219 207.238281 C 21.382812 190.789062 31.25 179.277344 44.40625 172.699219 C 44.40625 200.65625 49.34375 225.328125 59.210938 248.355469 C 62.5 258.222656 67.433594 268.09375 74.011719 277.960938 C 93.75 202.300781 133.222656 148.027344 192.433594 111.84375 C 134.867188 169.40625 103.617188 231.90625 97.039062 297.699219 L 120.066406 317.433594 L 141.449219 335.527344 Z M 302.632812 133.222656 C 302.632812 136.511719 304.277344 141.449219 304.277344 144.738281 C 304.277344 148.027344 304.277344 152.960938 304.277344 156.25 C 282.894531 138.15625 277.960938 121.710938 291.117188 106.90625 C 297.699219 113.488281 302.632812 121.710938 304.277344 131.578125 Z M 353.617188 226.972656 L 360.199219 238.488281 C 351.972656 238.488281 350.328125 233.550781 353.617188 226.972656 Z M 302.632812 74.011719 C 309.210938 67.433594 314.144531 59.210938 319.078125 52.632812 L 322.367188 70.722656 Z M 302.632812 74.011719 " fill-opacity="1" fill-rule="evenodd"/></svg>