<svg width="39" height="31" viewBox="0 0 39 31" fill="none" xmlns="http://www.w3.org/2000/svg">
<path d="M34.5 26.8555H30.75V10.4492L19.5 17.4805L8.25 10.4492V26.8555H4.5V4.35547H6.75L19.5 12.3242L32.25 4.35547H34.5M34.5 0.605469H4.5C2.41875 0.605469 0.75 2.27422 0.75 4.35547V26.8555C0.75 27.85 1.14509 28.8039 1.84835 29.5071C2.55161 30.2104 3.50544 30.6055 4.5 30.6055H34.5C35.4946 30.6055 36.4484 30.2104 37.1516 29.5071C37.8549 28.8039 38.25 27.85 38.25 26.8555V4.35547C38.25 2.27422 36.5625 0.605469 34.5 0.605469Z" fill="#FFE922"/>
</svg>
