<svg width="14" height="12" viewBox="0 0 14 12" fill="none" xmlns="http://www.w3.org/2000/svg">
<path d="M10.3333 0.333252H3.66665C1.66665 0.333252 0.333313 1.33325 0.333313 3.66659V8.33325C0.333313 10.6666 1.66665 11.6666 3.66665 11.6666H10.3333C12.3333 11.6666 13.6666 10.6666 13.6666 8.33325V3.66659C13.6666 1.33325 12.3333 0.333252 10.3333 0.333252ZM10.6466 4.39325L8.55998 6.05992C8.11998 6.41325 7.55998 6.58659 6.99998 6.58659C6.43998 6.58659 5.87331 6.41325 5.43998 6.05992L3.35331 4.39325C3.13998 4.21992 3.10665 3.89992 3.27331 3.68659C3.44665 3.47325 3.75998 3.43325 3.97331 3.60659L6.05998 5.27325C6.56665 5.67992 7.42665 5.67992 7.93331 5.27325L10.02 3.60659C10.2333 3.43325 10.5533 3.46659 10.72 3.68659C10.8933 3.89992 10.86 4.21992 10.6466 4.39325Z" fill="#FFE922"/>
</svg>
