<svg width="25" height="25" viewBox="0 0 25 25" fill="none" xmlns="http://www.w3.org/2000/svg">
<mask id="mask0_63_5630" style="mask-type:alpha" maskUnits="userSpaceOnUse" x="0" y="0" width="25" height="25">
<rect width="25" height="25" fill="#D9D9D9"/>
</mask>
<g mask="url(#mask0_63_5630)">
<path d="M20.9896 13.5417H8.33333V11.4583H20.9896L19.375 9.84375L20.8333 8.33333L25 12.5L20.8333 16.6667L19.375 15.1562L20.9896 13.5417ZM15.625 9.375V5.20833H5.20833V19.7917H15.625V15.625H17.7083V19.7917C17.7083 20.3646 17.5043 20.855 17.0964 21.263C16.6884 21.671 16.1979 21.875 15.625 21.875H5.20833C4.63542 21.875 4.14497 21.671 3.73698 21.263C3.32899 20.855 3.125 20.3646 3.125 19.7917V5.20833C3.125 4.63542 3.32899 4.14497 3.73698 3.73698C4.14497 3.32899 4.63542 3.125 5.20833 3.125H15.625C16.1979 3.125 16.6884 3.32899 17.0964 3.73698C17.5043 4.14497 17.7083 4.63542 17.7083 5.20833V9.375H15.625Z" fill="black"/>
</g>
</svg>
