<svg width="16" height="16" viewBox="0 0 16 16" fill="none" xmlns="http://www.w3.org/2000/svg">
<path d="M13.7467 5.63341C13.0467 2.55341 10.36 1.16675 8 1.16675C8 1.16675 8 1.16675 7.99334 1.16675C5.64 1.16675 2.94667 2.54675 2.24667 5.62675C1.46667 9.06675 3.57334 11.9801 5.48 13.8134C6.18667 14.4934 7.09334 14.8334 8 14.8334C8.90667 14.8334 9.81334 14.4934 10.5133 13.8134C12.42 11.9801 14.5267 9.07341 13.7467 5.63341ZM8 8.97341C6.84 8.97341 5.9 8.03341 5.9 6.87341C5.9 5.71341 6.84 4.77341 8 4.77341C9.16 4.77341 10.1 5.71341 10.1 6.87341C10.1 8.03341 9.16 8.97341 8 8.97341Z" fill="#FFE922"/>
</svg>
