<svg xmlns="http://www.w3.org/2000/svg" xmlns:xlink="http://www.w3.org/1999/xlink" width="242" zoomAndPan="magnify" viewBox="0 0 181.5 131.999998" height="176" preserveAspectRatio="xMidYMid meet" version="1.0"><defs><g/><clipPath id="9762e566f8"><path d="M 54 19 L 127.082031 19 L 127.082031 81 L 54 81 Z M 54 19 " clip-rule="nonzero"/></clipPath></defs><g clip-path="url(#9762e566f8)"><path fill="#ffe922" d="M 60.871094 37.5 C 62.160156 37.820312 62.160156 37.820312 60.871094 37.5 Z M 80.835938 78.398438 C 80.835938 77.433594 80.835938 76.789062 80.835938 75.820312 C 80.515625 65.195312 82.125 57.144531 85.667969 51.992188 C 83.414062 61.652344 84.703125 70.992188 89.53125 79.363281 C 89.855469 79.6875 89.855469 80.007812 90.175781 80.652344 L 91.785156 80.332031 L 100.160156 78.078125 C 99.839844 76.144531 98.871094 73.566406 96.617188 70.023438 C 91.785156 61.328125 91.464844 55.210938 95.652344 51.023438 C 95.652344 50.703125 95.972656 50.058594 95.972656 49.734375 C 96.296875 50.058594 96.296875 50.058594 96.617188 50.378906 C 96.617188 50.378906 96.617188 50.703125 96.617188 50.703125 C 100.160156 54.566406 103.058594 55.855469 105.957031 54.566406 C 112.71875 51.667969 113.363281 52.3125 106.921875 56.5 C 112.398438 59.398438 115.296875 61.652344 115.296875 62.617188 C 115.941406 64.226562 116.90625 65.195312 118.195312 65.839844 C 119.160156 66.160156 120.128906 66.484375 121.414062 66.160156 C 117.871094 60.6875 118.195312 60.363281 122.703125 65.839844 C 126.566406 64.226562 127.855469 61.328125 127.210938 57.464844 L 115.941406 35.886719 C 115.617188 34.921875 115.296875 34.277344 114.972656 33.632812 C 114.332031 31.703125 113.6875 29.769531 113.363281 28.160156 C 113.042969 26.871094 112.71875 25.582031 112.71875 24.617188 C 112.71875 24.292969 112.71875 23.972656 112.71875 23.652344 C 112.074219 24.9375 111.109375 25.90625 110.144531 25.90625 C 110.144531 24.617188 109.820312 23.328125 109.820312 22.363281 C 109.5 21.074219 109.175781 20.109375 108.535156 19.785156 C 107.890625 21.394531 107.246094 22.683594 106.921875 23.652344 C 106.601562 24.292969 105.957031 24.617188 105.636719 24.9375 C 105.3125 24.617188 104.992188 24.617188 104.667969 24.292969 C 101.125 22.039062 97.90625 21.074219 94.683594 21.394531 C 95.972656 22.039062 96.296875 23.007812 96.617188 24.292969 C 81.160156 23.328125 73.109375 22.039062 71.820312 21.394531 C 73.429688 23.972656 75.039062 26.226562 76.972656 27.515625 C 66.667969 28.480469 59.261719 31.703125 54.109375 36.53125 C 57.648438 37.175781 59.90625 37.820312 61.191406 38.144531 C 58.292969 42.328125 56.683594 47.480469 57.007812 53.921875 C 57.972656 50.703125 59.90625 48.449219 62.480469 47.160156 C 62.480469 52.632812 63.445312 57.464844 65.378906 61.972656 C 66.023438 63.90625 66.988281 65.839844 68.277344 67.769531 C 72.140625 52.957031 79.871094 42.328125 91.464844 35.246094 C 80.191406 46.515625 74.074219 58.753906 72.785156 71.636719 L 77.292969 75.5 L 81.480469 79.042969 Z M 113.042969 39.429688 C 113.042969 40.074219 113.363281 41.042969 113.363281 41.683594 C 113.363281 42.328125 113.363281 43.296875 113.363281 43.941406 C 109.175781 40.398438 108.210938 37.175781 110.789062 34.277344 C 112.074219 35.566406 113.042969 37.175781 113.363281 39.109375 Z M 123.027344 57.789062 L 124.3125 60.042969 C 122.703125 60.042969 122.382812 59.074219 123.027344 57.789062 Z M 113.042969 27.835938 C 114.332031 26.550781 115.296875 24.9375 116.261719 23.652344 L 116.90625 27.191406 Z M 113.042969 27.835938 " fill-opacity="1" fill-rule="evenodd"/></g><g fill="#ffffff" fill-opacity="1"><g transform="translate(26.138951, 102.915274)"><g><path d="M 9.140625 -8.265625 L 7.140625 -8.265625 L 7.140625 0 L 2.03125 0 L 2.03125 -21.625 L 9.109375 -21.625 C 12.066406 -21.625 14.285156 -21.082031 15.765625 -20 C 17.253906 -18.914062 18 -17.265625 18 -15.046875 C 18 -13.648438 17.664062 -12.488281 17 -11.5625 C 16.332031 -10.632812 15.285156 -9.847656 13.859375 -9.203125 L 19.34375 0 L 13.578125 0 Z M 7.140625 -11.796875 L 9.296875 -11.796875 C 10.441406 -11.796875 11.300781 -12.054688 11.875 -12.578125 C 12.445312 -13.097656 12.734375 -13.921875 12.734375 -15.046875 C 12.734375 -16.078125 12.425781 -16.832031 11.8125 -17.3125 C 11.195312 -17.789062 10.253906 -18.03125 8.984375 -18.03125 L 7.140625 -18.03125 Z M 7.140625 -11.796875 "/></g></g></g><g fill="#ffffff" fill-opacity="1"><g transform="translate(44.761833, 102.915274)"><g><path d="M 15.109375 -4.8125 C 15.109375 -4.1875 15.191406 -3.726562 15.359375 -3.4375 C 15.535156 -3.144531 15.820312 -2.925781 16.21875 -2.78125 L 15.203125 0.4375 C 14.179688 0.351562 13.347656 0.128906 12.703125 -0.234375 C 12.054688 -0.597656 11.554688 -1.175781 11.203125 -1.96875 C 10.117188 -0.300781 8.453125 0.53125 6.203125 0.53125 C 4.566406 0.53125 3.257812 0.0507812 2.28125 -0.90625 C 1.300781 -1.863281 0.8125 -3.113281 0.8125 -4.65625 C 0.8125 -6.457031 1.476562 -7.835938 2.8125 -8.796875 C 4.144531 -9.753906 6.066406 -10.234375 8.578125 -10.234375 L 10.265625 -10.234375 L 10.265625 -10.953125 C 10.265625 -11.929688 10.054688 -12.601562 9.640625 -12.96875 C 9.222656 -13.332031 8.492188 -13.515625 7.453125 -13.515625 C 6.910156 -13.515625 6.253906 -13.4375 5.484375 -13.28125 C 4.722656 -13.125 3.9375 -12.910156 3.125 -12.640625 L 2 -15.875 C 3.039062 -16.269531 4.101562 -16.570312 5.1875 -16.78125 C 6.28125 -16.988281 7.296875 -17.09375 8.234375 -17.09375 C 10.609375 -17.09375 12.347656 -16.601562 13.453125 -15.625 C 14.554688 -14.65625 15.109375 -13.191406 15.109375 -11.234375 Z M 7.640625 -3 C 8.765625 -3 9.640625 -3.53125 10.265625 -4.59375 L 10.265625 -7.515625 L 9.046875 -7.515625 C 7.921875 -7.515625 7.082031 -7.316406 6.53125 -6.921875 C 5.976562 -6.523438 5.703125 -5.914062 5.703125 -5.09375 C 5.703125 -4.425781 5.875 -3.910156 6.21875 -3.546875 C 6.5625 -3.179688 7.035156 -3 7.640625 -3 Z M 7.640625 -3 "/></g></g></g><g fill="#ffffff" fill-opacity="1"><g transform="translate(61.232304, 102.915274)"><g><path d="M 6.859375 -16.5625 L 6.859375 0 L 1.9375 0 L 1.9375 -16.5625 Z M 4.359375 -25.3125 C 5.210938 -25.3125 5.914062 -25.046875 6.46875 -24.515625 C 7.019531 -23.984375 7.296875 -23.3125 7.296875 -22.5 C 7.296875 -21.6875 7.019531 -21.015625 6.46875 -20.484375 C 5.914062 -19.953125 5.210938 -19.6875 4.359375 -19.6875 C 3.503906 -19.6875 2.804688 -19.953125 2.265625 -20.484375 C 1.734375 -21.015625 1.46875 -21.6875 1.46875 -22.5 C 1.46875 -23.3125 1.734375 -23.984375 2.265625 -24.515625 C 2.804688 -25.046875 3.503906 -25.3125 4.359375 -25.3125 Z M 4.359375 -25.3125 "/></g></g></g><g fill="#ffffff" fill-opacity="1"><g transform="translate(69.405092, 102.915274)"><g><path d="M 7.765625 -17.09375 C 8.953125 -17.09375 10.066406 -16.914062 11.109375 -16.5625 C 12.148438 -16.207031 13.066406 -15.710938 13.859375 -15.078125 L 12.046875 -12.296875 C 10.691406 -13.148438 9.328125 -13.578125 7.953125 -13.578125 C 7.304688 -13.578125 6.8125 -13.46875 6.46875 -13.25 C 6.125 -13.03125 5.953125 -12.722656 5.953125 -12.328125 C 5.953125 -12.015625 6.03125 -11.757812 6.1875 -11.5625 C 6.34375 -11.363281 6.660156 -11.160156 7.140625 -10.953125 C 7.617188 -10.742188 8.359375 -10.492188 9.359375 -10.203125 C 11.085938 -9.703125 12.375 -9.050781 13.21875 -8.25 C 14.0625 -7.445312 14.484375 -6.34375 14.484375 -4.9375 C 14.484375 -3.8125 14.160156 -2.835938 13.515625 -2.015625 C 12.867188 -1.191406 11.984375 -0.5625 10.859375 -0.125 C 9.734375 0.3125 8.484375 0.53125 7.109375 0.53125 C 5.722656 0.53125 4.429688 0.3125 3.234375 -0.125 C 2.035156 -0.5625 1.019531 -1.164062 0.1875 -1.9375 L 2.59375 -4.625 C 3.988281 -3.539062 5.453125 -3 6.984375 -3 C 7.734375 -3 8.320312 -3.132812 8.75 -3.40625 C 9.175781 -3.675781 9.390625 -4.0625 9.390625 -4.5625 C 9.390625 -4.957031 9.304688 -5.265625 9.140625 -5.484375 C 8.972656 -5.710938 8.648438 -5.925781 8.171875 -6.125 C 7.691406 -6.320312 6.929688 -6.566406 5.890625 -6.859375 C 4.253906 -7.335938 3.03125 -8.003906 2.21875 -8.859375 C 1.40625 -9.710938 1 -10.773438 1 -12.046875 C 1 -13.003906 1.273438 -13.859375 1.828125 -14.609375 C 2.378906 -15.367188 3.164062 -15.972656 4.1875 -16.421875 C 5.21875 -16.867188 6.410156 -17.09375 7.765625 -17.09375 Z M 7.765625 -17.09375 "/></g></g></g><g fill="#ffffff" fill-opacity="1"><g transform="translate(83.84794, 102.915274)"><g><path d="M 16.375 -8.609375 C 16.375 -7.921875 16.34375 -7.328125 16.28125 -6.828125 L 6.015625 -6.828125 C 6.179688 -5.441406 6.578125 -4.46875 7.203125 -3.90625 C 7.828125 -3.34375 8.691406 -3.0625 9.796875 -3.0625 C 10.460938 -3.0625 11.109375 -3.179688 11.734375 -3.421875 C 12.359375 -3.660156 13.035156 -4.03125 13.765625 -4.53125 L 15.78125 -1.78125 C 13.851562 -0.238281 11.703125 0.53125 9.328125 0.53125 C 6.640625 0.53125 4.578125 -0.257812 3.140625 -1.84375 C 1.710938 -3.425781 1 -5.546875 1 -8.203125 C 1 -9.890625 1.300781 -11.40625 1.90625 -12.75 C 2.507812 -14.09375 3.390625 -15.148438 4.546875 -15.921875 C 5.710938 -16.703125 7.109375 -17.09375 8.734375 -17.09375 C 11.128906 -17.09375 13 -16.34375 14.34375 -14.84375 C 15.695312 -13.351562 16.375 -11.273438 16.375 -8.609375 Z M 11.546875 -10.015625 C 11.503906 -12.554688 10.609375 -13.828125 8.859375 -13.828125 C 8.003906 -13.828125 7.34375 -13.515625 6.875 -12.890625 C 6.40625 -12.265625 6.117188 -11.234375 6.015625 -9.796875 L 11.546875 -9.796875 Z M 11.546875 -10.015625 "/></g></g></g><g fill="#ffffff" fill-opacity="1"><g transform="translate(100.443185, 102.915274)"><g><path d="M 13.421875 0 L 12.296875 -4.65625 L 5.984375 -4.65625 L 4.90625 0 L -0.40625 0 L 6.109375 -21.625 L 12.328125 -21.625 L 18.84375 0 Z M 6.859375 -8.359375 L 11.421875 -8.359375 L 9.140625 -17.90625 Z M 6.859375 -8.359375 "/></g></g></g><g fill="#ffffff" fill-opacity="1"><g transform="translate(118.223816, 102.915274)"><g><path d="M 11.296875 -17.09375 C 13.378906 -17.09375 14.925781 -16.320312 15.9375 -14.78125 C 16.957031 -13.25 17.46875 -11.097656 17.46875 -8.328125 C 17.46875 -6.617188 17.203125 -5.09375 16.671875 -3.75 C 16.140625 -2.414062 15.375 -1.367188 14.375 -0.609375 C 13.382812 0.148438 12.222656 0.53125 10.890625 0.53125 C 9.222656 0.53125 7.878906 -0.0390625 6.859375 -1.1875 L 6.859375 6.390625 L 1.9375 6.921875 L 1.9375 -16.5625 L 6.265625 -16.5625 L 6.515625 -14.734375 C 7.160156 -15.535156 7.898438 -16.128906 8.734375 -16.515625 C 9.566406 -16.898438 10.421875 -17.09375 11.296875 -17.09375 Z M 9.390625 -3.09375 C 11.367188 -3.09375 12.359375 -4.816406 12.359375 -8.265625 C 12.359375 -10.222656 12.140625 -11.582031 11.703125 -12.34375 C 11.265625 -13.101562 10.609375 -13.484375 9.734375 -13.484375 C 9.171875 -13.484375 8.644531 -13.316406 8.15625 -12.984375 C 7.664062 -12.648438 7.234375 -12.171875 6.859375 -11.546875 L 6.859375 -4.5625 C 7.523438 -3.582031 8.367188 -3.09375 9.390625 -3.09375 Z M 9.390625 -3.09375 "/></g></g></g><g fill="#ffffff" fill-opacity="1"><g transform="translate(136.222808, 102.915274)"><g><path d="M 11.296875 -17.09375 C 13.378906 -17.09375 14.925781 -16.320312 15.9375 -14.78125 C 16.957031 -13.25 17.46875 -11.097656 17.46875 -8.328125 C 17.46875 -6.617188 17.203125 -5.09375 16.671875 -3.75 C 16.140625 -2.414062 15.375 -1.367188 14.375 -0.609375 C 13.382812 0.148438 12.222656 0.53125 10.890625 0.53125 C 9.222656 0.53125 7.878906 -0.0390625 6.859375 -1.1875 L 6.859375 6.390625 L 1.9375 6.921875 L 1.9375 -16.5625 L 6.265625 -16.5625 L 6.515625 -14.734375 C 7.160156 -15.535156 7.898438 -16.128906 8.734375 -16.515625 C 9.566406 -16.898438 10.421875 -17.09375 11.296875 -17.09375 Z M 9.390625 -3.09375 C 11.367188 -3.09375 12.359375 -4.816406 12.359375 -8.265625 C 12.359375 -10.222656 12.140625 -11.582031 11.703125 -12.34375 C 11.265625 -13.101562 10.609375 -13.484375 9.734375 -13.484375 C 9.171875 -13.484375 8.644531 -13.316406 8.15625 -12.984375 C 7.664062 -12.648438 7.234375 -12.171875 6.859375 -11.546875 L 6.859375 -4.5625 C 7.523438 -3.582031 8.367188 -3.09375 9.390625 -3.09375 Z M 9.390625 -3.09375 "/></g></g></g></svg>